HIERARCHY
ROOT Hips
{
    OFFSET 0 0 0
    CHANNELS 6 Xposition Yposition Zposition Zrotation Xrotation Yrotation 
    JOINT LeftHip
    {
        OFFSET 3.3 0 0
        CHANNELS 3 Zrotation Xrotation Yrotation 
        JOINT LeftKnee
        {
            OFFSET 0 -17.8 0
            CHANNELS 1 Xrotation 
            End Site
            {
                OFFSET 0 -16.03 0
            }
        }
    }
    JOINT RightHip
    {
        OFFSET -3.3 0 0
        CHANNELS 3 Zrotation Xrotation Yrotation 
        JOINT RightKnee
        {
            OFFSET 0 -17.7 0
            CHANNELS 1 Xrotation 
            End Site
            {
                OFFSET 0 -16.1 0
            }
        }
    }
    JOINT Chest
    {
        OFFSET 0 4.41 0
        CHANNELS 3 Zrotation Xrotation Yrotation 
        JOINT Neck
        {
            OFFSET 0 16.76 0
            CHANNELS 2 Zrotation Xrotation 
            JOINT Head
            {
                OFFSET 0 4.4 0
                CHANNELS 3 Zrotation Xrotation Yrotation 
                End Site
                {
                    OFFSET 0 3.31 0
                }
            }
        }
        JOINT LeftCollar
        {
            OFFSET 1.01 14.58 1.68
            CHANNELS 2 Zrotation Yrotation 
            JOINT LeftShoulder
            {
                OFFSET 5.89 0 0
                CHANNELS 3 Zrotation Xrotation Yrotation 
                JOINT LeftElbow
                {
                    OFFSET 0 -11.63 0
                    CHANNELS 1 Xrotation 
                    End Site
                    {
                        OFFSET 0 -9.24 0
                    }
                }
            }
        }
        JOINT RightCollar
        {
            OFFSET -1.01 14.58 1.68
            CHANNELS 2 Zrotation Yrotation 
            JOINT RightShoulder
            {
                OFFSET -6.39 0 0
                CHANNELS 3 Zrotation Xrotation Yrotation 
                JOINT RightElbow
                {
                    OFFSET 0 -11.08 0
                    CHANNELS 1 Xrotation 
                    End Site
                    {
                        OFFSET 0 -9.13 0
                    }
                }
            }
        }
    }
}
MOTION
Frames:  21
Frame Time: 0.033333
3.30091	25.4773	108.641	3.35445	0.14137	-14.3333	3.17848	-45.3528	4.50309	28.3766	-19.1654	39.6819	24.5701	-8.48149	2.9341	3.61083	10.8529	4.67116	40.5498	-5.88991	-32.1012	0	-18.3846	26.3303	40.499	12.3094	-67.6306	-24.7203	21.7246	-21.6252	-39.556	-29.8207	29.7771	-44.2854	
2.96908	26.0437	111.306	11.5565	-0.782679	-11.7977	-6.48879	-42.2586	6.02787	33.7148	-28.0131	37.0868	24.1086	-0.489199	1.29135	3.7259	10.8526	5.41556	40.1535	-6.07393	-31.9768	0	-17.5406	26.1819	40.8674	13.7975	-64.8521	-24.0513	21.8016	-21.8582	-39.2985	-27.7796	29.4887	-45.6561	
2.63808	26.476	113.767	19.657	-1.30962	-9.1651	-15.7372	-38.3366	6.07342	36.9742	-36.6476	33.0821	22.8784	10.0765	-0.414411	3.71596	10.5344	5.41069	39.7284	-6.13387	-31.8554	0	-16.8276	26.1773	40.7007	13.5651	-61.7979	-23.3353	21.6131	-22.0348	-38.7645	-24.9032	29.8258	-46.0348	
2.32836	26.8694	115.894	27.022	-1.06131	-6.67439	-24.1066	-33.6441	4.44227	37.0656	-44.4597	26.665	21.4531	21.9891	-1.81947	3.22922	10.0025	4.85716	39.4431	-6.21131	-31.9512	0	-16.3659	26.2121	39.9968	11.9192	-59.629	-22.463	21.292	-22.1865	-38.0804	-21.9645	30.9033	-45.4867	
2.0566	27.246	117.664	33.0708	-0.0439441	-4.47907	-31.0503	-28.4218	1.6453	34.0881	-50.8335	17.7823	20.4258	34.4227	-2.54591	2.3001	9.17753	4.10873	39.4098	-6.44802	-32.4384	0	-16.3412	26.0856	38.6036	9.12053	-55.6568	-21.2777	21.0332	-22.3279	-37.6848	-19.3615	32.7544	-44.1611	
1.82625	27.5936	119.174	37.5316	0.924052	-2.18383	-36.2051	-22.5101	-1.85163	29.3787	-55.2775	7.87382	19.5255	45.5777	-2.70886	1.79855	7.8635	3.3097	39.4146	-6.73042	-33.1004	0	-16.5523	25.7733	36.6589	5.28089	-51.2463	-20.1368	20.8072	-22.4153	-37.569	-17.0419	35.1616	-42.3428	
1.66955	27.884	120.519	40.1775	1.28862	0.293731	-39.3023	-15.8833	-5.60291	24.0901	-57.393	-1.42832	18.2962	53.5379	-2.4053	2.19761	6.27452	2.58455	39.1996	-6.91548	-33.622	0	-16.5555	25.2753	34.4551	0.732511	-49.3355	-19.5066	20.4656	-22.4078	-37.5338	-14.697	37.5714	-40.3108	
1.59265	28.1204	121.789	40.9134	1.09641	2.77568	-40.1272	-8.6363	-9.27893	18.4361	-57.1827	-9.57922	16.7055	57.5681	-1.78137	3.22006	4.62822	2.27493	38.7553	-7.09722	-33.7564	0	-16.3801	24.8194	32.437	-4.41497	-49.5968	-19.615	20.1505	-22.3778	-37.6256	-12.1254	39.5625	-38.0778	
1.60885	28.3024	123.041	39.9945	0.71097	5.34456	-38.9003	-1.01096	-11.8928	12.2061	-55.1406	-16.4267	14.8224	57.5208	-0.999838	4.32976	2.8269	2.73498	38.2701	-7.43259	-33.4806	0	-16.1736	24.5815	30.7927	-10.0444	-50.0256	-20.5354	20.0697	-22.2896	-38.102	-9.22424	41.1247	-35.6098	
1.69425	28.4016	124.323	37.9551	0.517892	8.35	-36.1251	6.22953	-13.3706	6.1965	-51.9632	-22.1601	12.3822	53.5725	-0.533169	5.06861	0.801184	3.96433	38.5402	-7.98018	-33.8963	0	-15.7159	24.2544	29.3237	-15.6663	-48.6828	-21.8477	20.4601	-22.2433	-38.9965	-5.9837	41.9905	-33.0238	
1.8459	28.3923	125.672	35.2823	0.843183	11.8476	-32.3102	12.2054	-14.8272	1.53381	-48.2894	-27.0453	9.1812	46.2699	-0.76743	5.16087	-1.3881	5.81187	40.3648	-8.76312	-36.2355	0	-15.1438	23.7538	28.0022	-21.0702	-45.9336	-23.0925	21.3993	-22.489	-40.1919	-2.69894	42.0947	-30.4835	
2.04951	28.278	127.164	31.9987	1.64007	15.3618	-27.6138	16.8484	-18.5751	-1.50419	-44.1107	-31.033	6.24241	37.6688	-1.51882	4.69592	-3.43535	7.96619	42.9158	-9.77566	-39.7382	0	-14.6131	23.0599	26.9091	-26.1887	-43.6476	-24.6342	22.5805	-22.9354	-41.3898	0.610497	41.4181	-27.89	
2.29289	28.0456	128.882	27.977	2.30499	18.3032	-22.1531	20.6646	-25.027	-2.70568	-39.1793	-34.0004	4.81995	30.3452	-2.34835	4.42884	-5.05808	10.0467	44.8769	-10.9759	-42.9664	0	-14.2373	22.4807	26.1205	-30.902	-41.9898	-27.1115	23.7029	-23.2238	-42.2333	3.94701	39.7423	-25.0989	
2.59595	27.6705	130.899	23.2324	2.57456	20.4785	-16.1557	23.9693	-32.6677	-1.9968	-33.4468	-36.2438	4.78901	25.6005	-2.90954	4.5449	-6.12987	11.6259	46.0128	-12.1113	-45.2828	0	-14.0324	22.1749	25.4516	-34.7625	-40.6483	-30.6385	24.4712	-23.3619	-42.6066	7.11951	37.1118	-22.23	
2.96905	27.0966	133.277	17.8433	2.75802	21.9016	-9.77954	26.8706	-39.5982	0.233294	-27.1136	-38.3036	6.6687	22.6495	-2.86738	4.52574	-6.57184	12.3085	46.5418	-12.8536	-46.4353	0	-14.1767	22.0818	25.1455	-37.2291	-39.5857	-35.0253	24.8589	-23.5881	-42.7856	9.79548	33.621	-19.5486	
3.37014	26.3903	135.857	11.6403	2.95926	22.4826	-2.73342	29.5251	-44.9991	2.84405	-20.1234	-39.9488	6.88279	21.6129	-2.051	4.26879	-6.59269	12.141	46.4065	-13.0278	-46.3766	0	-14.5468	22.2445	25.1174	-38.1521	-38.8392	-39.5062	24.8395	-23.8192	-42.9833	11.7382	30.4759	-17.5326	
3.8053	26.8906	138.458	4.77573	2.43209	20.4639	4.33836	27.6715	-45.2021	7.91714	-11.7709	-39.9004	-0.745537	28.5791	-0.563239	3.83438	-6.52622	11.4037	45.4474	-12.5509	-45.1829	0	-14.9649	22.6916	25.4875	-37.4472	-37.7702	-43.1588	24.3128	-23.7076	-43.1712	13.0699	28.951	-16.7013	
4.27736	27.2644	141.107	-2.06766	1.72584	17.7241	11.5891	24.1972	-42.2442	14.9936	-3.87873	-38.1153	-4.28561	33.7324	1.14783	3.67972	-6.49394	10.5234	43.8421	-11.4875	-43.1487	0	-15.1726	23.1261	25.8807	-35.4034	-35.6068	-46.2681	23.5294	-23.4223	-43.2099	13.5114	29.2172	-16.9829	
4.76237	27.5169	143.549	-8.46959	1.18619	14.9599	18.389	19.4257	-38.8781	23.48	3.11233	-35.0976	-6.48131	36.7378	2.49946	3.70236	-6.43839	9.97021	41.965	-10.0062	-40.7176	0	-15.117	23.4641	26.1116	-32.7095	-33.332	-49.654	22.8572	-23.2458	-43.033	12.7547	30.2963	-17.9842	
5.24631	27.7465	145.689	-14.0416	0.894808	12.1947	24.0751	13.0186	-35.6835	32.523	8.98732	-30.7959	-7.85255	36.9462	3.27464	3.90958	-6.09907	9.83665	40.3177	-8.51915	-38.653	0	-15.0154	23.7316	26.1713	-29.9167	-32.5412	-52.7902	22.5511	-23.1655	-42.6278	10.8454	31.3644	-19.348	
5.71732	27.966	147.555	-18.5448	0.570529	9.30052	28.2632	5.59786	-32.2667	40.813	13.613	-25.243	-8.68187	34.846	3.43644	4.45678	-5.28149	9.99373	39.4453	-7.56456	-37.8309	0	-14.9566	24.0773	26.1759	-27.2978	-33.2817	-54.4051	22.4555	-22.9862	-41.758	8.14262	31.6059	-20.7531	
